<svg width="100" height="100" viewBox="0 0 100 100" fill="none" xmlns="http://www.w3.org/2000/svg">
<rect width="100" height="100" fill="white"/>
<path d="M29.4679 45C29.3613 45 29.2706 44.9627 29.1959 44.888C29.1213 44.8133 29.0839 44.7227 29.0839 44.616V34.2C29.0839 34.0827 29.1213 33.9867 29.1959 33.912C29.2706 33.8373 29.3613 33.8 29.4679 33.8H33.6119C34.9026 33.8 35.9213 34.0987 36.6679 34.696C37.4146 35.2933 37.7879 36.1627 37.7879 37.304C37.7879 38.0933 37.5906 38.7493 37.1959 39.272C36.8119 39.7947 36.2946 40.1733 35.6439 40.408L37.9799 44.488C38.0119 44.552 38.0279 44.6107 38.0279 44.664C38.0279 44.76 37.9906 44.84 37.9159 44.904C37.8519 44.968 37.7773 45 37.6919 45H36.2359C36.0546 45 35.9159 44.952 35.8199 44.856C35.7239 44.76 35.6493 44.664 35.5959 44.568L33.5319 40.776H31.3079V44.616C31.3079 44.7227 31.2706 44.8133 31.1959 44.888C31.1319 44.9627 31.0413 45 30.9239 45H29.4679ZM31.3079 38.968H33.5639C34.2146 38.968 34.6999 38.824 35.0199 38.536C35.3399 38.2373 35.4999 37.8213 35.4999 37.288C35.4999 36.7547 35.3399 36.3387 35.0199 36.04C34.7106 35.7307 34.2253 35.576 33.5639 35.576H31.3079V38.968ZM43.1478 45.16C41.9638 45.16 41.0251 44.8187 40.3318 44.136C39.6385 43.4533 39.2651 42.4827 39.2118 41.224C39.2011 41.1173 39.1958 40.984 39.1958 40.824C39.1958 40.6533 39.2011 40.52 39.2118 40.424C39.2545 39.624 39.4358 38.9307 39.7558 38.344C40.0865 37.7573 40.5398 37.3093 41.1158 37C41.6918 36.68 42.3691 36.52 43.1478 36.52C44.0118 36.52 44.7371 36.7013 45.3238 37.064C45.9105 37.416 46.3531 37.912 46.6518 38.552C46.9505 39.1813 47.0998 39.912 47.0998 40.744V41.08C47.0998 41.1867 47.0625 41.2773 46.9878 41.352C46.9131 41.4267 46.8171 41.464 46.6998 41.464H41.3878C41.3878 41.464 41.3878 41.48 41.3878 41.512C41.3878 41.544 41.3878 41.5707 41.3878 41.592C41.3985 41.9653 41.4678 42.312 41.5958 42.632C41.7345 42.9413 41.9318 43.192 42.1878 43.384C42.4545 43.576 42.7691 43.672 43.1318 43.672C43.4305 43.672 43.6811 43.6293 43.8838 43.544C44.0865 43.448 44.2518 43.3413 44.3798 43.224C44.5078 43.1067 44.5985 43.0107 44.6518 42.936C44.7478 42.808 44.8225 42.7333 44.8758 42.712C44.9398 42.68 45.0305 42.664 45.1478 42.664H46.5238C46.6305 42.664 46.7158 42.696 46.7798 42.76C46.8545 42.824 46.8865 42.904 46.8758 43C46.8651 43.1707 46.7745 43.3787 46.6038 43.624C46.4438 43.8693 46.2091 44.1093 45.8998 44.344C45.5905 44.5787 45.2011 44.776 44.7318 44.936C44.2731 45.0853 43.7451 45.16 43.1478 45.16ZM41.3878 40.12H44.9238V40.072C44.9238 39.656 44.8545 39.2933 44.7158 38.984C44.5771 38.6747 44.3745 38.4293 44.1078 38.248C43.8411 38.0667 43.5211 37.976 43.1478 37.976C42.7745 37.976 42.4545 38.0667 42.1878 38.248C41.9211 38.4293 41.7185 38.6747 41.5798 38.984C41.4518 39.2933 41.3878 39.656 41.3878 40.072V40.12ZM52.5269 45C51.8869 45 51.3483 44.888 50.9109 44.664C50.4736 44.44 50.1483 44.1093 49.9349 43.672C49.7216 43.224 49.6149 42.6693 49.6149 42.008V38.376H48.3509C48.2443 38.376 48.1536 38.3387 48.0789 38.264C48.0043 38.1893 47.9669 38.0987 47.9669 37.992V37.064C47.9669 36.9573 48.0043 36.8667 48.0789 36.792C48.1536 36.7173 48.2443 36.68 48.3509 36.68H49.6149V34.024C49.6149 33.9173 49.6469 33.8267 49.7109 33.752C49.7856 33.6773 49.8816 33.64 49.9989 33.64H51.2949C51.4016 33.64 51.4923 33.6773 51.5669 33.752C51.6416 33.8267 51.6789 33.9173 51.6789 34.024V36.68H53.6789C53.7856 36.68 53.8763 36.7173 53.9509 36.792C54.0256 36.8667 54.0629 36.9573 54.0629 37.064V37.992C54.0629 38.0987 54.0256 38.1893 53.9509 38.264C53.8763 38.3387 53.7856 38.376 53.6789 38.376H51.6789V41.848C51.6789 42.2853 51.7536 42.6267 51.9029 42.872C52.0629 43.1173 52.3349 43.24 52.7189 43.24H53.8229C53.9296 43.24 54.0203 43.2773 54.0949 43.352C54.1696 43.4267 54.2069 43.5173 54.2069 43.624V44.616C54.2069 44.7227 54.1696 44.8133 54.0949 44.888C54.0203 44.9627 53.9296 45 53.8229 45H52.5269ZM58.0423 45.16C57.4876 45.16 56.9863 45.0533 56.5383 44.84C56.0903 44.616 55.733 44.3227 55.4663 43.96C55.2103 43.5867 55.0823 43.1707 55.0823 42.712C55.0823 41.9653 55.381 41.3733 55.9783 40.936C56.5863 40.488 57.3863 40.1893 58.3783 40.04L60.5703 39.72V39.384C60.5703 38.936 60.4583 38.5893 60.2343 38.344C60.0103 38.0987 59.6263 37.976 59.0823 37.976C58.6983 37.976 58.3836 38.056 58.1383 38.216C57.9036 38.3653 57.7276 38.568 57.6103 38.824C57.525 38.9627 57.4023 39.032 57.2423 39.032H55.9783C55.861 39.032 55.7703 39 55.7063 38.936C55.653 38.872 55.6263 38.7867 55.6263 38.68C55.637 38.5093 55.7063 38.3013 55.8343 38.056C55.9623 37.8107 56.165 37.576 56.4423 37.352C56.7196 37.1173 57.077 36.92 57.5143 36.76C57.9516 36.6 58.4796 36.52 59.0983 36.52C59.7703 36.52 60.3356 36.6053 60.7943 36.776C61.2636 36.936 61.637 37.1547 61.9143 37.432C62.1916 37.7093 62.3943 38.0347 62.5223 38.408C62.6503 38.7813 62.7143 39.176 62.7143 39.592V44.616C62.7143 44.7227 62.677 44.8133 62.6023 44.888C62.5276 44.9627 62.437 45 62.3303 45H61.0343C60.917 45 60.821 44.9627 60.7463 44.888C60.6823 44.8133 60.6503 44.7227 60.6503 44.616V43.992C60.5116 44.1947 60.325 44.3867 60.0903 44.568C59.8556 44.7387 59.5676 44.8827 59.2263 45C58.8956 45.1067 58.501 45.16 58.0423 45.16ZM58.5863 43.64C58.9596 43.64 59.2956 43.56 59.5943 43.4C59.9036 43.24 60.1436 42.9947 60.3143 42.664C60.4956 42.3227 60.5863 41.896 60.5863 41.384V41.048L58.9863 41.304C58.357 41.4 57.8876 41.5547 57.5783 41.768C57.269 41.9813 57.1143 42.2427 57.1143 42.552C57.1143 42.7867 57.1836 42.9893 57.3223 43.16C57.4716 43.32 57.6583 43.4427 57.8823 43.528C58.1063 43.6027 58.341 43.64 58.5863 43.64ZM65.1509 45C65.0443 45 64.9536 44.9627 64.8789 44.888C64.8043 44.8133 64.7669 44.7227 64.7669 44.616V37.064C64.7669 36.9573 64.8043 36.8667 64.8789 36.792C64.9536 36.7173 65.0443 36.68 65.1509 36.68H66.4789C66.5963 36.68 66.6869 36.7173 66.7509 36.792C66.8256 36.8667 66.8629 36.9573 66.8629 37.064V44.616C66.8629 44.7227 66.8256 44.8133 66.7509 44.888C66.6869 44.9627 66.5963 45 66.4789 45H65.1509ZM65.0869 35.304C64.9696 35.304 64.8736 35.272 64.7989 35.208C64.7349 35.1333 64.7029 35.0373 64.7029 34.92V33.768C64.7029 33.6613 64.7349 33.5707 64.7989 33.496C64.8736 33.4213 64.9696 33.384 65.0869 33.384H66.5429C66.6603 33.384 66.7563 33.4213 66.8309 33.496C66.9056 33.5707 66.9429 33.6613 66.9429 33.768V34.92C66.9429 35.0373 66.9056 35.1333 66.8309 35.208C66.7563 35.272 66.6603 35.304 66.5429 35.304H65.0869ZM69.3857 45C69.279 45 69.1884 44.9627 69.1137 44.888C69.039 44.8133 69.0017 44.7227 69.0017 44.616V34.024C69.0017 33.9173 69.039 33.8267 69.1137 33.752C69.1884 33.6773 69.279 33.64 69.3857 33.64H70.7137C70.8204 33.64 70.911 33.6773 70.9857 33.752C71.0604 33.8267 71.0977 33.9173 71.0977 34.024V44.616C71.0977 44.7227 71.0604 44.8133 70.9857 44.888C70.911 44.9627 70.8204 45 70.7137 45H69.3857ZM20.8314 67.16C20.2767 67.16 19.7754 67.0533 19.3274 66.84C18.8794 66.616 18.522 66.3227 18.2554 65.96C17.9994 65.5867 17.8714 65.1707 17.8714 64.712C17.8714 63.9653 18.17 63.3733 18.7674 62.936C19.3754 62.488 20.1754 62.1893 21.1674 62.04L23.3594 61.72V61.384C23.3594 60.936 23.2474 60.5893 23.0234 60.344C22.7994 60.0987 22.4154 59.976 21.8714 59.976C21.4874 59.976 21.1727 60.056 20.9274 60.216C20.6927 60.3653 20.5167 60.568 20.3994 60.824C20.314 60.9627 20.1914 61.032 20.0314 61.032H18.7674C18.65 61.032 18.5594 61 18.4954 60.936C18.442 60.872 18.4154 60.7867 18.4154 60.68C18.426 60.5093 18.4954 60.3013 18.6234 60.056C18.7514 59.8107 18.954 59.576 19.2314 59.352C19.5087 59.1173 19.866 58.92 20.3034 58.76C20.7407 58.6 21.2687 58.52 21.8874 58.52C22.5594 58.52 23.1247 58.6053 23.5834 58.776C24.0527 58.936 24.426 59.1547 24.7034 59.432C24.9807 59.7093 25.1834 60.0347 25.3114 60.408C25.4394 60.7813 25.5034 61.176 25.5034 61.592V66.616C25.5034 66.7227 25.466 66.8133 25.3914 66.888C25.3167 66.9627 25.226 67 25.1194 67H23.8234C23.706 67 23.61 66.9627 23.5354 66.888C23.4714 66.8133 23.4394 66.7227 23.4394 66.616V65.992C23.3007 66.1947 23.114 66.3867 22.8794 66.568C22.6447 66.7387 22.3567 66.8827 22.0154 67C21.6847 67.1067 21.29 67.16 20.8314 67.16ZM21.3754 65.64C21.7487 65.64 22.0847 65.56 22.3834 65.4C22.6927 65.24 22.9327 64.9947 23.1034 64.664C23.2847 64.3227 23.3754 63.896 23.3754 63.384V63.048L21.7754 63.304C21.146 63.4 20.6767 63.5547 20.3674 63.768C20.058 63.9813 19.9034 64.2427 19.9034 64.552C19.9034 64.7867 19.9727 64.9893 20.1114 65.16C20.2607 65.32 20.4474 65.4427 20.6714 65.528C20.8954 65.6027 21.13 65.64 21.3754 65.64ZM27.94 67C27.8333 67 27.7427 66.9627 27.668 66.888C27.5933 66.8133 27.556 66.7227 27.556 66.616V59.064C27.556 58.9573 27.5933 58.8667 27.668 58.792C27.7427 58.7173 27.8333 58.68 27.94 58.68H29.252C29.3587 58.68 29.4493 58.7173 29.524 58.792C29.5987 58.8667 29.636 58.9573 29.636 59.064V59.72C29.9133 59.3787 30.2653 59.096 30.692 58.872C31.1293 58.6373 31.668 58.52 32.308 58.52C32.9587 58.52 33.524 58.6693 34.004 58.968C34.484 59.256 34.852 59.6667 35.108 60.2C35.3747 60.7333 35.508 61.3733 35.508 62.12V66.616C35.508 66.7227 35.4707 66.8133 35.396 66.888C35.3213 66.9627 35.2307 67 35.124 67H33.716C33.6093 67 33.5187 66.9627 33.444 66.888C33.3693 66.8133 33.332 66.7227 33.332 66.616V62.216C33.332 61.5973 33.1773 61.112 32.868 60.76C32.5693 60.408 32.132 60.232 31.556 60.232C31.0013 60.232 30.5587 60.408 30.228 60.76C29.8973 61.112 29.732 61.5973 29.732 62.216V66.616C29.732 66.7227 29.6947 66.8133 29.62 66.888C29.5453 66.9627 29.4547 67 29.348 67H27.94ZM40.6284 67.16C40.0737 67.16 39.583 67.0693 39.1564 66.888C38.7404 66.696 38.3937 66.4293 38.1164 66.088C37.839 65.7467 37.6257 65.3467 37.4764 64.888C37.327 64.4187 37.2417 63.9067 37.2204 63.352C37.2097 63.16 37.2044 62.9893 37.2044 62.84C37.2044 62.68 37.2097 62.504 37.2204 62.312C37.2417 61.7787 37.3217 61.2827 37.4604 60.824C37.6097 60.3653 37.823 59.9653 38.1004 59.624C38.3884 59.272 38.7404 59 39.1564 58.808C39.583 58.616 40.0737 58.52 40.6284 58.52C41.2044 58.52 41.6897 58.6213 42.0844 58.824C42.4897 59.016 42.8257 59.2667 43.0924 59.576V56.024C43.0924 55.9173 43.1244 55.8267 43.1884 55.752C43.263 55.6773 43.359 55.64 43.4764 55.64H44.8364C44.943 55.64 45.0337 55.6773 45.1084 55.752C45.183 55.8267 45.2204 55.9173 45.2204 56.024V66.616C45.2204 66.7227 45.183 66.8133 45.1084 66.888C45.0337 66.9627 44.943 67 44.8364 67H43.5724C43.455 67 43.359 66.9627 43.2844 66.888C43.2204 66.8133 43.1884 66.7227 43.1884 66.616V66.024C42.9217 66.3547 42.5804 66.6267 42.1644 66.84C41.759 67.0533 41.247 67.16 40.6284 67.16ZM41.2204 65.448C41.6684 65.448 42.0257 65.3467 42.2924 65.144C42.559 64.9413 42.7564 64.6853 42.8844 64.376C43.0124 64.056 43.0817 63.7307 43.0924 63.4C43.103 63.208 43.1084 63.0053 43.1084 62.792C43.1084 62.568 43.103 62.36 43.0924 62.168C43.0817 61.848 43.007 61.544 42.8684 61.256C42.7297 60.9573 42.527 60.712 42.2604 60.52C41.9937 60.328 41.647 60.232 41.2204 60.232C40.7724 60.232 40.415 60.3333 40.1484 60.536C39.8924 60.728 39.7057 60.984 39.5884 61.304C39.471 61.624 39.4017 61.976 39.3804 62.36C39.3697 62.68 39.3697 63 39.3804 63.32C39.4017 63.704 39.471 64.056 39.5884 64.376C39.7057 64.696 39.8924 64.9573 40.1484 65.16C40.415 65.352 40.7724 65.448 41.2204 65.448ZM55.5211 67.16C54.5291 67.16 53.6865 66.9893 52.9931 66.648C52.3105 66.296 51.7878 65.8 51.4251 65.16C51.0625 64.5093 50.8598 63.7307 50.8171 62.824C50.8065 62.3867 50.8011 61.9173 50.8011 61.416C50.8011 60.9147 50.8065 60.4347 50.8171 59.976C50.8598 59.08 51.0625 58.3067 51.4251 57.656C51.7985 57.0053 52.3265 56.5093 53.0091 56.168C53.7025 55.816 54.5398 55.64 55.5211 55.64C56.2465 55.64 56.8971 55.736 57.4731 55.928C58.0491 56.12 58.5398 56.3867 58.9451 56.728C59.3505 57.0587 59.6651 57.448 59.8891 57.896C60.1131 58.344 60.2305 58.8293 60.2411 59.352C60.2518 59.448 60.2198 59.528 60.1451 59.592C60.0811 59.656 60.0011 59.688 59.9051 59.688H58.3851C58.2678 59.688 58.1718 59.6613 58.0971 59.608C58.0225 59.544 57.9691 59.4427 57.9371 59.304C57.7665 58.6 57.4731 58.12 57.0571 57.864C56.6411 57.608 56.1238 57.48 55.5051 57.48C54.7905 57.48 54.2198 57.6827 53.7931 58.088C53.3665 58.4827 53.1371 59.1387 53.1051 60.056C53.0731 60.9307 53.0731 61.8267 53.1051 62.744C53.1371 63.6613 53.3665 64.3227 53.7931 64.728C54.2198 65.1227 54.7905 65.32 55.5051 65.32C56.1238 65.32 56.6411 65.192 57.0571 64.936C57.4731 64.6693 57.7665 64.1893 57.9371 63.496C57.9691 63.3467 58.0225 63.2453 58.0971 63.192C58.1718 63.1387 58.2678 63.112 58.3851 63.112H59.9051C60.0011 63.112 60.0811 63.144 60.1451 63.208C60.2198 63.272 60.2518 63.352 60.2411 63.448C60.2305 63.9707 60.1131 64.456 59.8891 64.904C59.6651 65.352 59.3505 65.7467 58.9451 66.088C58.5398 66.4187 58.0491 66.68 57.4731 66.872C56.8971 67.064 56.2465 67.16 55.5211 67.16ZM62.5226 67C62.416 67 62.3253 66.9627 62.2506 66.888C62.176 66.8133 62.1386 66.7227 62.1386 66.616V56.2C62.1386 56.0827 62.176 55.9867 62.2506 55.912C62.3253 55.8373 62.416 55.8 62.5226 55.8H66.8106C67.6426 55.8 68.368 55.9333 68.9866 56.2C69.6053 56.456 70.0853 56.8507 70.4266 57.384C70.768 57.9067 70.9386 58.5627 70.9386 59.352C70.9386 60.152 70.768 60.8133 70.4266 61.336C70.0853 61.848 69.6053 62.232 68.9866 62.488C68.368 62.744 67.6426 62.872 66.8106 62.872H64.4266V66.616C64.4266 66.7227 64.3893 66.8133 64.3146 66.888C64.2506 66.9627 64.16 67 64.0426 67H62.5226ZM64.3946 61.096H66.7306C67.3493 61.096 67.824 60.952 68.1546 60.664C68.4853 60.3653 68.6506 59.928 68.6506 59.352C68.6506 58.8187 68.496 58.392 68.1866 58.072C67.8773 57.7413 67.392 57.576 66.7306 57.576H64.3946V61.096ZM77.0375 67.16C76.0562 67.16 75.2188 66.9893 74.5255 66.648C73.8428 66.3067 73.3095 65.816 72.9255 65.176C72.5522 64.5253 72.3495 63.752 72.3175 62.856C72.3068 62.3973 72.3015 61.9067 72.3015 61.384C72.3015 60.8507 72.3068 60.3493 72.3175 59.88C72.3495 58.9947 72.5522 58.2373 72.9255 57.608C73.3095 56.9787 73.8482 56.4933 74.5415 56.152C75.2455 55.8107 76.0775 55.64 77.0375 55.64C77.8162 55.64 78.4988 55.7467 79.0855 55.96C79.6722 56.1627 80.1575 56.4293 80.5415 56.76C80.9362 57.08 81.2295 57.4267 81.4215 57.8C81.6242 58.1733 81.7308 58.52 81.7415 58.84C81.7522 58.936 81.7255 59.016 81.6615 59.08C81.5975 59.144 81.5122 59.176 81.4055 59.176H79.7575C79.6508 59.176 79.5708 59.1547 79.5175 59.112C79.4642 59.0693 79.4162 59.0053 79.3735 58.92C79.2882 58.696 79.1548 58.4773 78.9735 58.264C78.7922 58.04 78.5468 57.8533 78.2375 57.704C77.9282 57.5547 77.5282 57.48 77.0375 57.48C76.3122 57.48 75.7308 57.672 75.2935 58.056C74.8668 58.44 74.6375 59.0747 74.6055 59.96C74.5735 60.888 74.5735 61.8267 74.6055 62.776C74.6375 63.6827 74.8722 64.3333 75.3095 64.728C75.7575 65.1227 76.3442 65.32 77.0695 65.32C77.5495 65.32 77.9762 65.2347 78.3495 65.064C78.7335 64.8933 79.0322 64.6267 79.2455 64.264C79.4695 63.9013 79.5815 63.4373 79.5815 62.872V62.376H77.6295C77.5228 62.376 77.4322 62.3387 77.3575 62.264C77.2828 62.1893 77.2455 62.0933 77.2455 61.976V61.128C77.2455 61.0107 77.2828 60.9147 77.3575 60.84C77.4322 60.7653 77.5228 60.728 77.6295 60.728H81.4535C81.5708 60.728 81.6615 60.7653 81.7255 60.84C81.8002 60.9147 81.8375 61.0107 81.8375 61.128V62.808C81.8375 63.704 81.6402 64.4773 81.2455 65.128C80.8615 65.7787 80.3068 66.28 79.5815 66.632C78.8668 66.984 78.0188 67.16 77.0375 67.16Z" fill="black"/>
</svg>
